<svg xmlns="http://www.w3.org/2000/svg" width="14.2" height="14.199" viewBox="0 0 14.2 14.199">
  <defs>
    <style>
      .cls-1 {
        fill: #fff;
        stroke: #fff;
        stroke-linecap: round;
        stroke-width: 0.2px;
      }
    </style>
  </defs>
  <path id="Search" class="cls-1" d="M-7570.125-7350.4a.722.722,0,0,1-.512-.213l-3.311-3.31-.146-.145-.165.119a5.742,5.742,0,0,1-3.373,1.087,5.776,5.776,0,0,1-5.77-5.77,5.776,5.776,0,0,1,5.77-5.77,5.776,5.776,0,0,1,5.769,5.77,5.717,5.717,0,0,1-1.087,3.371l-.12.167,3.455,3.457a.719.719,0,0,1,.212.511.713.713,0,0,1-.214.512A.712.712,0,0,1-7570.125-7350.4Zm-7.506-12.552a4.327,4.327,0,0,0-4.323,4.321,4.328,4.328,0,0,0,4.323,4.322,4.327,4.327,0,0,0,4.322-4.322A4.327,4.327,0,0,0-7577.631-7362.953Z" transform="translate(7583.501 7364.5)"/>
</svg>
