<svg xmlns="http://www.w3.org/2000/svg" width="28" height="28" viewBox="0 0 28 28">
    <defs>
        <style>
            .cls-2{fill:#fec007}.cls-3{fill:#50b8ff}.cls-4{fill:#caedff}.cls-5{fill:#76c2e0}.cls-7{fill:#efcdb1}.cls-8{fill:#d8ad8f}
        </style>
    </defs>
    <g id="PG_Hostels_Rooms" transform="translate(-32 -209)">
        <g id="daily-needs-icn" transform="translate(32 209)">
            <path id="Rectangle_91" fill="none" d="M0 0h28v28H0z"/>
            <g id="bunk-bed" transform="translate(2 -28.458)">
                <path id="Path_16972" d="M409.442 82.577a1 1 0 0 1 0-1.365l1.037-1.084a.9.9 0 0 1 1.306 0 1 1 0 0 1 0 1.365l-1.037 1.084a.9.9 0 0 1-1.306 0z" class="cls-2" transform="translate(-389.992 -46.016)"/>
                <path id="Path_16973" d="M409.442 281.379a1 1 0 0 1 0-1.365l1.037-1.084a.9.9 0 0 1 1.306 0 1 1 0 0 1 0 1.365l-1.037 1.084a.9.9 0 0 1-1.306 0z" class="cls-3" transform="translate(-389.992 -235.079)"/>
                <path id="Rectangle_16113" d="M0 0H9.229V2.698H0z" class="cls-4" transform="translate(13.012 36.853)"/>
                <path id="Rectangle_16114" d="M0 0H9.229V1.207H0z" class="cls-5" transform="translate(13.012 38.344)"/>
                <path id="Path_16974" d="M76.991 131.522v2.054H63.654v-2.054a1.171 1.171 0 0 1 1.144-1.2h11.049a1.171 1.171 0 0 1 1.144 1.2z" class="cls-2" transform="translate(-60.67 -94.025)"/>
                <path id="Rectangle_16115" fill="#fe9700" d="M0 0H13.337V1.207H0z" transform="translate(2.984 38.344)"/>
                <path id="Rectangle_16116" d="M0 0H21.889V1.472H0z" class="cls-7" transform="translate(1.056 39.306)"/>
                <g id="Group_16262" transform="translate(1.76 39.306)">
                    <path id="Rectangle_16117" d="M0 0H1.039V1.472H0z" class="cls-8"/>
                    <path id="Rectangle_16118" d="M0 0H1.039V1.472H0z" class="cls-8" transform="translate(19.442)"/>
                </g>
                <path id="Rectangle_16119" d="M0 0H9.229V2.698H0z" class="cls-4" transform="translate(13.012 46.582)"/>
                <path id="Rectangle_16120" d="M0 0H9.229V1.207H0z" class="cls-5" transform="translate(13.012 48.073)"/>
                <path id="Path_16975" d="M76.991 330.117v2.054H63.654v-2.054a1.171 1.171 0 0 1 1.144-1.2h11.049a1.171 1.171 0 0 1 1.144 1.2z" class="cls-3" transform="translate(-60.67 -282.891)"/>
                <path id="Path_16976" fill="#2195f2" d="M76.991 370.613v1.207H63.654v-1.207" transform="translate(-60.67 -322.54)"/>
                <path id="Rectangle_16121" d="M0 0H21.889V1.472H0z" class="cls-7" transform="translate(1.056 49.035)"/>
                <g id="Group_16263" transform="translate(1.76 49.035)">
                    <path id="Rectangle_16122" d="M0 0H1.039V1.472H0z" class="cls-8" transform="translate(19.442)"/>
                    <path id="Rectangle_16123" d="M0 0H1.039V1.472H0z" class="cls-8"/>
                </g>
                <g id="Group_16264" transform="translate(.352 31.825)">
                    <path id="Rectangle_16124" d="M0 0H1.408V21.265H0z" class="cls-7" transform="translate(21.889)"/>
                    <path id="Rectangle_16125" d="M0 0H1.408V21.265H0z" class="cls-7"/>
                </g>
                <path id="Path_16977" fill="#333a60" d="M23.648 33.9a.36.36 0 0 0 .352-.366v-1.708a.36.36 0 0 0-.352-.367H22.24a.36.36 0 0 0-.352.367v1.889a1.236 1.236 0 0 0-1.65.137L19.2 34.935a1.38 1.38 0 0 0-.233 1.551h-2.652a1.468 1.468 0 0 0-1.139-.552H9.528v-2.106a.352.352 0 1 0-.7 0v.88H5.27v-.88a.352.352 0 1 0-.7 0v2.1h-.442a1.532 1.532 0 0 0-1.5 1.563v1.442h-.517v-3.489a.352.352 0 1 0-.7 0V52.713H.7v-20.52h.7v1.831a.352.352 0 1 0 .7 0v-2.2a.36.36 0 0 0-.352-.367H.352a.36.36 0 0 0-.352.368v21.266a.36.36 0 0 0 .352.367H1.76a.36.36 0 0 0 .352-.367v-2.217h2.455v2.21a.352.352 0 1 0 .7 0v-.725h3.558v.725a.352.352 0 1 0 .7 0v-2.21h12.36v2.217a.36.36 0 0 0 .352.367h1.408a.36.36 0 0 0 .355-.367V34.954a.352.352 0 1 0-.7 0v17.769h-.7V49.28a.377.377 0 0 1 0-.245V32.193h.7v1.341a.36.36 0 0 0 .348.366zM3.335 48.667v-1.441a.812.812 0 0 1 .793-.828H10.8a.368.368 0 0 0 0-.735H9.528v-4.518h12.36v2.309a1.236 1.236 0 0 0-1.65.137L19.2 44.674a1.38 1.38 0 0 0-.238 1.54h-2.645a1.463 1.463 0 0 0-1.14-.552h-3.013a.368.368 0 0 0 0 .735h3.012a.782.782 0 0 1 .668.383.851.851 0 0 1 .124.445v1.442zm-1.224 0v-7.522h2.456V45.65h-.439a1.532 1.532 0 0 0-1.5 1.563v1.442zm6.714-7.522v.706H5.27v-.706zM5.27 45.663v-.778h3.555v.778zm3.555-1.513H5.27v-1.564h3.555zM19.7 46.039a.617.617 0 0 1 0-.846l1.037-1.084a.555.555 0 0 1 .809 0 .617.617 0 0 1 0 .846l-1.037 1.084a.556.556 0 0 1-.4.175.556.556 0 0 1-.409-.175zm2.19-.4v.579h-.554zm-5.241 1.314h5.241v1.718h-5.218v-1.445a1.634 1.634 0 0 0-.024-.277zM19.7 35.455l1.037-1.084a.555.555 0 0 1 .809 0 .617.617 0 0 1 0 .846L20.508 36.3a.555.555 0 0 1-.809 0 .617.617 0 0 1 0-.846zm2.19.442v.589h-.564zm0 1.324v1.718h-5.218V37.5a1.63 1.63 0 0 0-.024-.276zM5.27 35.443h3.555v.492H5.27zM3.335 37.5a.812.812 0 0 1 .793-.828h11.048a.812.812 0 0 1 .793.828v1.442H3.335zm18.554 2.176v.737H2.111v-.737zM8.825 51.631H5.27v-.757h3.555zm-6.714-1.492V49.4h19.778v.737z"/>
            </g>
        </g>
    </g>
</svg>
