<svg xmlns="http://www.w3.org/2000/svg" width="24" height="24" viewBox="0 0 24 24">
    <g data-name="handshake (1)">
        <path data-name="Path 155851" d="M20.474 63.609c-1.047-1.528-1.943-2.17-3.423-.914l-1.066.9a5.747 5.747 0 0 1-2.1.359l-.212.017-.282-.133a4.5 4.5 0 0 0-2.871-.643c-.256.025-.544.059-.847.094a18.81 18.81 0 0 1-2.795.2.381.381 0 0 0-.057-.074l-.8-.7c-1.464-1.278-2.368-.65-3.435.863L.913 65.954a3.651 3.651 0 0 0-.9 2.331 2.166 2.166 0 0 0 .668 1.325l1.146 1a6.66 6.66 0 0 1 .593.688c.05.022 6.938 8.774 8.212 9.142a1.086 1.086 0 0 0 .636.186 1.281 1.281 0 0 0 .6-.156 1.79 1.79 0 0 0 .876-1.243 2.28 2.28 0 0 0 .023-.185 1.268 1.268 0 0 0 .3.039 1.421 1.421 0 0 0 .651-.163 1.929 1.929 0 0 0 .965-1.372 2.008 2.008 0 0 0 .027-.388 1.261 1.261 0 0 0 .431.075 1.43 1.43 0 0 0 .653-.163 1.939 1.939 0 0 0 .965-1.373 1.9 1.9 0 0 0 .027-.305 1.27 1.27 0 0 0 .632.169 1.415 1.415 0 0 0 .651-.163 1.937 1.937 0 0 0 .966-1.372 1.753 1.753 0 0 0-.315-1.387 6.325 6.325 0 0 0 2.525-2.079l.755-.639a2.471 2.471 0 0 0 .99-1.571 3.559 3.559 0 0 0-.878-2.35zM3.052 64c1.048-1.48 1.576-1.634 2.591-.75l.556.485L1.91 69.83l-.791-.689a1.567 1.567 0 0 1-.51-.937 2.922 2.922 0 0 1 .778-1.836zm14.761 10.788a.768.768 0 0 1-.749.029l-2.33-2.031a.281.281 0 0 0-.422.057.363.363 0 0 0 .051.472l1.537 1.338a.984.984 0 0 1 .271.914 1.27 1.27 0 0 1-.629.9.76.76 0 0 1-.865-.072l-1.535-1.337a.281.281 0 0 0-.422.057.362.362 0 0 0 .051.47l1.055.922a.986.986 0 0 1 .268.914 1.262 1.262 0 0 1-.629.894.76.76 0 0 1-.865-.073l-1.051-.919a.283.283 0 0 0-.424.057.362.362 0 0 0 .052.471l.971.847a.972.972 0 0 1 .011.4 1.118 1.118 0 0 1-.544.775.625.625 0 0 1-.716-.045l-.764-.667c-.124-.013-7.326-8.306-7.361-8.38a4 4 0 0 0-.4-.517l4.308-6.12a12.909 12.909 0 0 0 3.049-.175c.3-.034.586-.067.837-.094a3.288 3.288 0 0 1 1.877.267 3.632 3.632 0 0 0-.577.164l-2.721 1.1c-.119.02-.229.037-.328.052-.678.1-1.087.166-1.3.771a1.537 1.537 0 0 0 .3 1.416 2.389 2.389 0 0 0 2.573.726l1.536-.219c.627-.092 1.167.393 1.688.86l4.556 3.979a.983.983 0 0 1 .271.914 1.259 1.259 0 0 1-.63.883zm.392-2.634-4.213-3.674a2.784 2.784 0 0 0-2.142-1l-1.565.225a1.824 1.824 0 0 1-2.013-.505.834.834 0 0 1-.2-.732c.077-.217.154-.249.823-.353.111-.017.232-.035.366-.057a.338.338 0 0 0 .057-.017l2.749-1.107a6.759 6.759 0 0 1 1.85-.3 5.646 5.646 0 0 0 2.439-.538l4.282 6.218A5.988 5.988 0 0 1 18.2 72.16m3.426-2.769-.547.465-4.232-6.144.562-.476c1.026-.872 1.558-.709 2.58.788l1.639 2.39a2.942 2.942 0 0 1 .757 1.849 1.853 1.853 0 0 1-.758 1.128z" transform="translate(.5 -60.281)" style="fill:#333;stroke:#333;stroke-width:.8px"/>
    </g>
</svg>
