<svg xmlns="http://www.w3.org/2000/svg" width="36" height="36" viewBox="0 0 36 36">
    <defs>
        <style>
            .cls-1{fill:#fff;stroke:#d8e1e8}.cls-2{fill:rgba(229,192,163,0)}.cls-3{fill:#3c3c3c}.cls-4{stroke:none}.cls-5{fill:none}
        </style>
    </defs>
    <g id="help_support-icn" data-name="help&amp;support-icn" transform="translate(-30 -468)">
        <g id="Ellipse_50" class="cls-1" data-name="Ellipse 50" transform="translate(30 468)">
            <circle cx="18" cy="18" r="18" class="cls-4"/>
            <circle cx="18" cy="18" r="17.5" class="cls-5"/>
        </g>
        <g id="help_support-icn-2" data-name="help&amp;support-icn" transform="translate(38 476)">
            <path id="Rectangle_6_copy_6" d="M0 0h20v20H0z" class="cls-2" data-name="Rectangle 6 copy 6"/>
            <path id="_-e-help-icn" d="M0 8.333a8.333 8.333 0 1 1 8.333 8.333A8.342 8.342 0 0 1 0 8.333zm1.093 0a7.24 7.24 0 1 0 7.24-7.241 7.249 7.249 0 0 0-7.24 7.241zm6.557 3.756a.684.684 0 1 1 .684.683.684.684 0 0 1-.684-.683zm.137-1.609v-1.9a.547.547 0 0 1 .546-.546 1.565 1.565 0 1 0-1.565-1.569.546.546 0 1 1-1.093 0 2.658 2.658 0 1 1 3.2 2.6v1.415a.546.546 0 1 1-1.093 0z" class="cls-3" data-name="-e-help-icn" transform="translate(1.661 1.667)"/>
        </g>
    </g>
</svg>
