<svg xmlns="http://www.w3.org/2000/svg" width="36" height="36" viewBox="0 0 36 36">
  <g id="investors_relation" transform="translate(-20 -1031)">
    <g id="Ellipse_239" data-name="Ellipse 239" transform="translate(20 1031)" fill="#fff" stroke="#d8e1e8" stroke-width="1">
      <circle cx="18" cy="18" r="18" stroke="none"/>
      <circle cx="18" cy="18" r="17.5" fill="none"/>
    </g>
    <path id="Rectangle_6053" data-name="Rectangle 6053" d="M0,0H20V20H0Z" transform="translate(28 1039)" fill="#dcdcdc" opacity="0"/>
    <path id="investor" d="M8.881,6.937a3.951,3.951,0,0,0,1.4-3.031A3.849,3.849,0,0,0,6.5,0,3.849,3.849,0,0,0,2.721,3.906a3.951,3.951,0,0,0,1.4,3.031A5.316,5.316,0,0,0,0,12.344v3.187A.461.461,0,0,0,.454,16H12.547A.461.461,0,0,0,13,15.531V12.344A5.316,5.316,0,0,0,8.881,6.937Zm-1.928.875V8.75H6.047V7.812ZM5.965,9.687h1.07l.479,2.476L6.5,13.044l-1.014-.881ZM3.628,3.906A2.925,2.925,0,0,1,6.5.937,2.925,2.925,0,0,1,9.372,3.906,2.925,2.925,0,0,1,6.5,6.875,2.925,2.925,0,0,1,3.628,3.906Zm8.465,11.156H.907V12.344c0-2.5,1.769-4.531,3.944-4.531H5.14v1.36l-.6,3.079A.478.478,0,0,0,4.7,12.7l1.512,1.313a.442.442,0,0,0,.583,0L8.3,12.7a.478.478,0,0,0,.153-.451l-.6-3.079V7.812h.289c2.175,0,3.944,2.033,3.944,4.531Zm0,0" transform="translate(31.5 1041)" fill="#3c3c3c"/>
  </g>
</svg>
