<svg xmlns="http://www.w3.org/2000/svg" width="36" height="36" viewBox="0 0 36 36">
    <defs>
        <style>
            .cls-1{fill:#fff;stroke:#d8e1e8}.cls-2{fill:rgba(229,192,163,0)}.cls-3{fill:#3c3c3c}.cls-4{stroke:none}.cls-5{fill:none}
        </style>
    </defs>
    <g id="listbusiness-icn" transform="translate(-30 -468)">
        <g id="Ellipse_50" class="cls-1" data-name="Ellipse 50" transform="translate(30 468)">
            <circle cx="18" cy="18" r="18" class="cls-4"/>
            <circle cx="18" cy="18" r="17.5" class="cls-5"/>
        </g>
        <g id="listbusiness-icn-2" data-name="listbusiness-icn" transform="translate(38 476)">
            <path id="Rectangle_6_copy_5" d="M0 0h20v20H0z" class="cls-2" data-name="Rectangle 6 copy 5"/>
            <path id="_-e-listyourbusiness-icn" d="M.593 12.311A.594.594 0 0 1 0 11.718V.592a.593.593 0 0 1 1.186 0v10.534h10.263a.593.593 0 1 1 0 1.185zm1.89-3.44A.58.58 0 0 1 2.23 8.5a.559.559 0 0 1 .1-.434l2.309-3.253a.6.6 0 0 1 .438-.25.615.615 0 0 1 .479.159l2.012 1.867 3-4.135-1.475.107a.6.6 0 0 1-.648-.535.56.56 0 0 1 .143-.426A.6.6 0 0 1 9 1.4l2.906-.211a.609.609 0 0 1 .442.139.564.564 0 0 1 .206.4l.219 2.8a.59.59 0 0 1-.556.624.687.687 0 0 1-.455-.152.537.537 0 0 1-.191-.388l-.108-1.362-3.309 4.565a.619.619 0 0 1-.438.245.612.612 0 0 1-.479-.16L5.231 6.04 3.324 8.72a.628.628 0 0 1-.493.254.649.649 0 0 1-.348-.103z" class="cls-3" data-name="-e-listyourbusiness-icn" transform="translate(3.889 3.803)"/>
        </g>
    </g>
</svg>
