<svg xmlns="http://www.w3.org/2000/svg" width="36" height="36">
    <g data-name="Manage Quotes">
        <g data-name="Ellipse 239" style="fill:#fff;stroke:#d8e1e8">
            <circle cx="18" cy="18" r="18" style="stroke:none"/>
            <circle cx="18" cy="18" r="17.5" style="fill:none"/>
        </g>
        <path data-name="Rectangle 6 copy 5" transform="translate(8 8)" style="fill:transparent" d="M0 0h20v20H0z"/>
        <path data-name="Path 67592" d="m11788.326 9360.895-6.564-6.493a1.475 1.475 0 0 1-.426-1.021 1.449 1.449 0 0 1 1.447-1.45h1.511a.579.579 0 1 1 0 1.157h-1.517a.291.291 0 0 0-.2.5l6.564 6.5a.734.734 0 0 0 1.036 0l6.484-6.5a.274.274 0 0 0 .068-.316.284.284 0 0 0-.264-.184h-1.389a.579.579 0 0 1 0-1.157h1.386a1.444 1.444 0 0 1 1.021 2.466l-6.487 6.5a1.9 1.9 0 0 1-2.671 0zm2.985-5.679a.572.572 0 0 1-.4-.154l-4.519-4.27a.605.605 0 0 1-.181-.417.588.588 0 0 1 .578-.593h1.809a2.116 2.116 0 0 0 1.948-1.288l.116-.278h-3.879a.579.579 0 1 1 0-1.157h3.894l-.134-.284a2.237 2.237 0 0 0-1.945-1.282h-1.806a.58.58 0 0 1-.577-.58.564.564 0 0 1 .168-.406.578.578 0 0 1 .409-.171h6.318a.579.579 0 0 1 0 1.157l-1.972.009.189.3a3.9 3.9 0 0 1 .477 1.11l.038.151h1.271a.578.578 0 0 1 0 1.155h-1.276l-.032.159a3.231 3.231 0 0 1-3.064 2.556l-.479.015 3.449 3.271a.573.573 0 0 1-.394.992z" transform="translate(-11771.336 -9334.337)" style="fill:#2e2e2e;stroke:transparent"/>
    </g>
</svg>
