<svg xmlns="http://www.w3.org/2000/svg" width="36" height="36" viewBox="0 0 36 36">
    <defs>
        <style>
            .cls-1{fill:#fff;stroke:#d8e1e8}.cls-2{fill:rgba(229,192,163,0)}.cls-3{fill:#3c3c3c}.cls-4{stroke:none}.cls-5{fill:none}
        </style>
    </defs>
    <g id="others-icn" transform="translate(-30 -468)">
        <g id="Ellipse_50" class="cls-1" data-name="Ellipse 50" transform="translate(30 468)">
            <circle cx="18" cy="18" r="18" class="cls-4"/>
            <circle cx="18" cy="18" r="17.5" class="cls-5"/>
        </g>
        <g id="others-icn-2" data-name="others-icn" transform="translate(38 476)">
            <path id="Rectangle_6_copy_8" d="M0 0h20v20H0z" class="cls-2" data-name="Rectangle 6 copy 8"/>
            <path id="_-e-aboutus-icn" d="M13.055 6.112a3.062 3.062 0 0 1-2.5-1.3 3.055 3.055 0 0 1-5 0 3.055 3.055 0 1 1 0-3.513 3.055 3.055 0 0 1 5 0 3.056 3.056 0 1 1 2.5 4.812zm0-5A1.944 1.944 0 1 0 15 3.055a1.946 1.946 0 0 0-1.945-1.943zm-5 0A1.944 1.944 0 1 0 10 3.055a1.946 1.946 0 0 0-1.945-1.943zm-5 0A1.944 1.944 0 1 0 5 3.055a1.946 1.946 0 0 0-1.945-1.943z" class="cls-3" data-name="-e-aboutus-icn" transform="translate(2.222 7.222)"/>
        </g>
    </g>
</svg>
