<svg xmlns="http://www.w3.org/2000/svg" width="36" height="36" viewBox="0 0 36 36">
    <defs>
        <style>
            .cls-1{fill:#fff;stroke:#d8e1e8}.cls-2{fill:#dcdcdc;opacity:0}.cls-3{fill:#3c3c3c}.cls-4{stroke:none}.cls-5{fill:none}
        </style>
    </defs>
    <g id="privacy-icn" transform="translate(-30 -468)">
        <g id="Ellipse_50" class="cls-1" data-name="Ellipse 50" transform="translate(30 468)">
            <circle cx="18" cy="18" r="18" class="cls-4"/>
            <circle cx="18" cy="18" r="17.5" class="cls-5"/>
        </g>
        <g id="privacy-icn-2" data-name="privacy-icn" transform="translate(38 476)">
            <path id="Rectangle_6054" d="M0 0h20v20H0z" class="cls-2" data-name="Rectangle 6054"/>
            <g id="shield" transform="translate(2.186 .556)">
                <path id="Path_1913" d="M16.07 5.124v-.013a23.166 23.166 0 0 1-.017-.587 2 2 0 0 0-1.889-1.961A7.768 7.768 0 0 1 8.88.333L8.868.321a1.209 1.209 0 0 0-1.642 0l-.013.012a7.769 7.769 0 0 1-5.287 2.228A2 2 0 0 0 .04 4.522c0 .212-.009.4-.017.587v.034a20.471 20.471 0 0 0 .828 7.472 9.512 9.512 0 0 0 2.282 3.556 11.938 11.938 0 0 0 4.467 2.64 1.383 1.383 0 0 0 .183.05 1.352 1.352 0 0 0 .531 0 1.388 1.388 0 0 0 .183-.05 11.946 11.946 0 0 0 4.461-2.643 9.526 9.526 0 0 0 2.282-3.556 20.5 20.5 0 0 0 .831-7.488zm-1.87 7.112a9.164 9.164 0 0 1-6.07 5.535l-.036.007a.249.249 0 0 1-.1 0l-.034-.009a9.154 9.154 0 0 1-6.07-5.537 19.315 19.315 0 0 1-.759-7.068v-.012c.009-.192.014-.392.018-.613a.889.889 0 0 1 .836-.872 9.724 9.724 0 0 0 3.3-.726 8.636 8.636 0 0 0 2.69-1.807.1.1 0 0 1 .137 0A8.639 8.639 0 0 0 10.8 2.942a9.726 9.726 0 0 0 3.3.726.889.889 0 0 1 .839.871c0 .222.009.423.018.613a19.323 19.323 0 0 1-.757 7.078zm0 0" class="cls-3" data-name="Path 1913" transform="translate(.033)"/>
                <path id="Path_1914" d="M95.106 128.41a4.708 4.708 0 1 0 4.708 4.708 4.708 4.708 0 0 0-4.708-4.708zm0 8.307a3.6 3.6 0 1 1 3.6-3.6 3.6 3.6 0 0 1-3.6 3.6zm0 0" class="cls-3" data-name="Path 1914" transform="translate(-87.027 -123.673)"/>
            </g>
        </g>
    </g>
</svg>
