<svg xmlns="http://www.w3.org/2000/svg" width="18" height="18" viewBox="0 0 18 18">
    <g>
        <path fill="#fff" d="M0 0H18V18H0z" transform="translate(-337 -516) translate(337 516)"/>
        <g>
            <g>
                <path fill="#414e5a" d="M16.559 47.692l-6.077-6.077a.924.924 0 0 0-1.3 0l-.552.552a.914.914 0 0 0-.269.651.932.932 0 0 0 .269.659l4.5 4.869c-.375.125-.5 1.25-4.5 4.888a.912.912 0 0 0 0 1.293l.552.55a.924.924 0 0 0 1.3 0L16.56 49a.929.929 0 0 0 0-1.307z" transform="translate(-337 -516) translate(338 476.654) translate(0 41.346) translate(0 -41.346)"/>
            </g>
        </g>
    </g>
</svg>
