<svg xmlns="http://www.w3.org/2000/svg" width="36" height="36" viewBox="0 0 36 36">
    <defs>
        <style>
            .cls-1{fill:#fff;stroke:#d8e1e8}.cls-2{fill:rgba(229,192,163,0)}.cls-3{fill:#363d43}.cls-4{stroke:none}.cls-5{fill:none}
        </style>
    </defs>
    <g id="settings" transform="translate(-30 -468)">
        <g id="Ellipse_50" class="cls-1" data-name="Ellipse 50" transform="translate(30 468)">
            <circle cx="18" cy="18" r="18" class="cls-4"/>
            <circle cx="18" cy="18" r="17.5" class="cls-5"/>
        </g>
        <g id="Group_7065" data-name="Group 7065" transform="translate(38 476)">
            <path id="Rectangle_6_copy_5" d="M0 0h20v20H0z" class="cls-2" data-name="Rectangle 6 copy 5"/>
            <g id="_-eg-setting-icn" data-name="-eg-setting-icn" transform="translate(1 1)">
                <path id="Shape_1" d="M237.7 56a1.109 1.109 0 0 1-1.1-.928l-.212-1.263a7.174 7.174 0 0 1-1.187-.489l-1.058.752a1.1 1.1 0 0 1-1.428-.12l-1.12-1.12a1.11 1.11 0 0 1-.121-1.433l.741-1.03a6.932 6.932 0 0 1-.515-1.222l-1.277-.218a1.11 1.11 0 0 1-.929-1.1v-1.59a1.11 1.11 0 0 1 .929-1.1l1.248-.212a6.94 6.94 0 0 1 .5-1.229l-.751-1.059a1.113 1.113 0 0 1 .121-1.432l1.123-1.12a1.111 1.111 0 0 1 1.433-.12l1.034.741a6.929 6.929 0 0 1 1.221-.516l.218-1.278a1.111 1.111 0 0 1 1.1-.918h1.587a1.111 1.111 0 0 1 1.1.928l.212 1.248a7.088 7.088 0 0 1 1.27.522l1.043-.741a1.105 1.105 0 0 1 1.429.12l1.12 1.12a1.11 1.11 0 0 1 .12 1.433l-.741 1.042a7.188 7.188 0 0 1 .508 1.225l1.262.212a1.1 1.1 0 0 1 .921 1.1v1.583a1.109 1.109 0 0 1-.929 1.1l-1.262.212a7.171 7.171 0 0 1-.508 1.226l.741 1.045a1.113 1.113 0 0 1-.12 1.432l-1.12 1.12a1.11 1.11 0 0 1-1.432.12l-1.041-.741a7.222 7.222 0 0 1-1.225.508l-.212 1.263a1.109 1.109 0 0 1-1.1.928zm-2.274-3.705a6.243 6.243 0 0 0 1.54.635.5.5 0 0 1 .372.405l.262 1.579a.1.1 0 0 0 .1.083h1.582a.1.1 0 0 0 .1-.083l.267-1.579a.5.5 0 0 1 .372-.405 6.007 6.007 0 0 0 1.575-.653.508.508 0 0 1 .552.022l1.3.928a.1.1 0 0 0 .128-.012l1.12-1.12a.106.106 0 0 0 .012-.128l-.923-1.314a.508.508 0 0 1-.022-.553 6.012 6.012 0 0 0 .653-1.575.506.506 0 0 1 .405-.373l1.579-.263a.1.1 0 0 0 .083-.1v-1.582a.1.1 0 0 0-.083-.1l-1.579-.267a.5.5 0 0 1-.405-.372 6.052 6.052 0 0 0-.653-1.576.508.508 0 0 1 .022-.553l.929-1.3a.106.106 0 0 0-.012-.128l-1.12-1.12a.1.1 0 0 0-.072-.031.113.113 0 0 0-.056.019l-1.3.933a.508.508 0 0 1-.552.022 6.124 6.124 0 0 0-1.613-.662.509.509 0 0 1-.376-.41l-.262-1.568a.1.1 0 0 0-.1-.082h-1.587a.1.1 0 0 0-.1.082l-.264 1.586a.518.518 0 0 1-.372.405 5.95 5.95 0 0 0-1.57.662.512.512 0 0 1-.557-.023l-1.3-.924a.091.091 0 0 0-.056-.019.1.1 0 0 0-.071.031l-1.12 1.12a.106.106 0 0 0-.012.128l.936 1.316a.5.5 0 0 1 .025.548 6.036 6.036 0 0 0-.642 1.578.51.51 0 0 1-.41.376l-1.567.263a.1.1 0 0 0-.083.1v1.588a.1.1 0 0 0 .083.1l1.587.271a.514.514 0 0 1 .405.373 5.959 5.959 0 0 0 .662 1.571.515.515 0 0 1-.023.557l-.924 1.3a.106.106 0 0 0 .011.128l1.12 1.12a.106.106 0 0 0 .071.03.115.115 0 0 0 .056-.018l1.316-.937a.493.493 0 0 1 .292-.094.529.529 0 0 1 .261.07zM234.61 47a3.883 3.883 0 1 1 3.885 3.882A3.883 3.883 0 0 1 234.61 47zm1.015 0a2.867 2.867 0 1 0 2.867-2.869A2.867 2.867 0 0 0 235.625 47z" class="cls-3" data-name="Shape 1" transform="translate(-229.497 -38)"/>
            </g>
        </g>
    </g>
</svg>
